<?xml version="1.0" encoding="UTF-8" standalone="no"?>
<!DOCTYPE svg PUBLIC "-//W3C//DTD SVG 1.1//EN"
 "http://www.w3.org/Graphics/SVG/1.1/DTD/svg11.dtd">
<!-- Generated by graphviz version 14.1.1 (20251213.1925)
 -->
<!-- Title: InheritanceTree Pages: 1 -->
<svg width="422pt" height="357pt"
 viewBox="0.00 0.00 422.00 357.00" xmlns="http://www.w3.org/2000/svg" xmlns:xlink="http://www.w3.org/1999/xlink">
<g id="graph0" class="graph" transform="scale(1 1) rotate(0) translate(4 352.5)">
<title>InheritanceTree</title>
<polygon fill="white" stroke="none" points="-4,4 -4,-352.5 417.75,-352.5 417.75,4 -4,4"/>
<text xml:space="preserve" text-anchor="middle" x="206.88" y="-7.2" font-family="Times New Roman,serif" font-size="14.00">simple_fraction &#45; Inheritance Hierarchy</text>
<!-- SIMPLE_FRACTION -->
<g id="node1" class="node">
<title>SIMPLE_FRACTION</title>
<path fill="none" stroke="black" d="M150.25,-96.5C150.25,-96.5 35.25,-96.5 35.25,-96.5 29.25,-96.5 23.25,-90.5 23.25,-84.5 23.25,-84.5 23.25,-72.5 23.25,-72.5 23.25,-66.5 29.25,-60.5 35.25,-60.5 35.25,-60.5 150.25,-60.5 150.25,-60.5 156.25,-60.5 162.25,-66.5 162.25,-72.5 162.25,-72.5 162.25,-84.5 162.25,-84.5 162.25,-90.5 156.25,-96.5 150.25,-96.5"/>
<text xml:space="preserve" text-anchor="middle" x="92.75" y="-73.45" font-family="Times New Roman,serif" font-size="14.00">SIMPLE_FRACTION</text>
</g>
<!-- ANY -->
<g id="node2" class="node">
<title>ANY</title>
<path fill="none" stroke="black" d="M368.62,-132.5C368.62,-132.5 338.62,-132.5 338.62,-132.5 332.62,-132.5 326.62,-126.5 326.62,-120.5 326.62,-120.5 326.62,-108.5 326.62,-108.5 326.62,-102.5 332.62,-96.5 338.62,-96.5 338.62,-96.5 368.62,-96.5 368.62,-96.5 374.62,-96.5 380.62,-102.5 380.62,-108.5 380.62,-108.5 380.62,-120.5 380.62,-120.5 380.62,-126.5 374.62,-132.5 368.62,-132.5"/>
<text xml:space="preserve" text-anchor="middle" x="353.62" y="-109.45" font-family="Times New Roman,serif" font-size="14.00">ANY</text>
</g>
<!-- SIMPLE_FRACTION&#45;&gt;ANY -->
<g id="edge1" class="edge">
<title>SIMPLE_FRACTION&#45;&gt;ANY</title>
<path fill="none" stroke="black" d="M148.75,-96.92C148.75,-105.78 148.75,-114.5 148.75,-114.5 148.75,-114.5 314.91,-114.5 314.91,-114.5"/>
<polygon fill="none" stroke="black" points="314.91,-118 324.91,-114.5 314.91,-111 314.91,-118"/>
</g>
<!-- COMPARABLE -->
<g id="node3" class="node">
<title>COMPARABLE</title>
<path fill="none" stroke="black" d="M395.75,-60.5C395.75,-60.5 311.5,-60.5 311.5,-60.5 305.5,-60.5 299.5,-54.5 299.5,-48.5 299.5,-48.5 299.5,-36.5 299.5,-36.5 299.5,-30.5 305.5,-24.5 311.5,-24.5 311.5,-24.5 395.75,-24.5 395.75,-24.5 401.75,-24.5 407.75,-30.5 407.75,-36.5 407.75,-36.5 407.75,-48.5 407.75,-48.5 407.75,-54.5 401.75,-60.5 395.75,-60.5"/>
<text xml:space="preserve" text-anchor="middle" x="353.62" y="-37.45" font-family="Times New Roman,serif" font-size="14.00">COMPARABLE</text>
</g>
<!-- SIMPLE_FRACTION&#45;&gt;COMPARABLE -->
<g id="edge2" class="edge">
<title>SIMPLE_FRACTION&#45;&gt;COMPARABLE</title>
<path fill="none" stroke="black" d="M162.66,-78.5C227.08,-78.5 312.75,-78.5 312.75,-78.5 312.75,-78.5 312.75,-72.44 312.75,-72.44"/>
<polygon fill="none" stroke="black" points="316.25,-72.44 312.75,-62.44 309.25,-72.44 316.25,-72.44"/>
</g>
<!-- LIB_TESTS -->
<g id="node4" class="node">
<title>LIB_TESTS</title>
<path fill="none" stroke="black" d="M122.88,-204.5C122.88,-204.5 62.62,-204.5 62.62,-204.5 56.62,-204.5 50.62,-198.5 50.62,-192.5 50.62,-192.5 50.62,-180.5 50.62,-180.5 50.62,-174.5 56.62,-168.5 62.62,-168.5 62.62,-168.5 122.88,-168.5 122.88,-168.5 128.88,-168.5 134.88,-174.5 134.88,-180.5 134.88,-180.5 134.88,-192.5 134.88,-192.5 134.88,-198.5 128.88,-204.5 122.88,-204.5"/>
<text xml:space="preserve" text-anchor="middle" x="92.75" y="-181.45" font-family="Times New Roman,serif" font-size="14.00">LIB_TESTS</text>
</g>
<!-- TEST_SET_BASE -->
<g id="node5" class="node">
<title>TEST_SET_BASE</title>
<path fill="none" stroke="black" d="M401.75,-204.5C401.75,-204.5 305.5,-204.5 305.5,-204.5 299.5,-204.5 293.5,-198.5 293.5,-192.5 293.5,-192.5 293.5,-180.5 293.5,-180.5 293.5,-174.5 299.5,-168.5 305.5,-168.5 305.5,-168.5 401.75,-168.5 401.75,-168.5 407.75,-168.5 413.75,-174.5 413.75,-180.5 413.75,-180.5 413.75,-192.5 413.75,-192.5 413.75,-198.5 407.75,-204.5 401.75,-204.5"/>
<text xml:space="preserve" text-anchor="middle" x="353.62" y="-181.45" font-family="Times New Roman,serif" font-size="14.00">TEST_SET_BASE</text>
</g>
<!-- LIB_TESTS&#45;&gt;TEST_SET_BASE -->
<g id="edge3" class="edge">
<title>LIB_TESTS&#45;&gt;TEST_SET_BASE</title>
<path fill="none" stroke="black" d="M135.24,-186.5C135.24,-186.5 281.61,-186.5 281.61,-186.5"/>
<polygon fill="none" stroke="black" points="281.61,-190 291.61,-186.5 281.61,-183 281.61,-190"/>
</g>
<!-- SIMPLE_FRACTION_TESTS -->
<g id="node6" class="node">
<title>SIMPLE_FRACTION_TESTS</title>
<path fill="none" stroke="black" d="M173.5,-276.5C173.5,-276.5 12,-276.5 12,-276.5 6,-276.5 0,-270.5 0,-264.5 0,-264.5 0,-252.5 0,-252.5 0,-246.5 6,-240.5 12,-240.5 12,-240.5 173.5,-240.5 173.5,-240.5 179.5,-240.5 185.5,-246.5 185.5,-252.5 185.5,-252.5 185.5,-264.5 185.5,-264.5 185.5,-270.5 179.5,-276.5 173.5,-276.5"/>
<text xml:space="preserve" text-anchor="middle" x="92.75" y="-253.45" font-family="Times New Roman,serif" font-size="14.00">SIMPLE_FRACTION_TESTS</text>
</g>
<!-- TEST_APP -->
<g id="node7" class="node">
<title>TEST_APP</title>
<path fill="none" stroke="black" d="M120.62,-348.5C120.62,-348.5 64.88,-348.5 64.88,-348.5 58.88,-348.5 52.88,-342.5 52.88,-336.5 52.88,-336.5 52.88,-324.5 52.88,-324.5 52.88,-318.5 58.88,-312.5 64.88,-312.5 64.88,-312.5 120.62,-312.5 120.62,-312.5 126.62,-312.5 132.62,-318.5 132.62,-324.5 132.62,-324.5 132.62,-336.5 132.62,-336.5 132.62,-342.5 126.62,-348.5 120.62,-348.5"/>
<text xml:space="preserve" text-anchor="middle" x="92.75" y="-325.45" font-family="Times New Roman,serif" font-size="14.00">TEST_APP</text>
</g>
</g>
</svg>
