<?xml version="1.0" encoding="UTF-8" standalone="no"?>
<!DOCTYPE svg PUBLIC "-//W3C//DTD SVG 1.1//EN"
 "http://www.w3.org/Graphics/SVG/1.1/DTD/svg11.dtd">
<!-- Generated by graphviz version 14.1.1 (20251213.1925)
 -->
<!-- Title: ContractCoverage Pages: 1 -->
<svg width="816pt" height="964pt"
 viewBox="48.00 48.00 768.00 916.00" xmlns="http://www.w3.org/2000/svg" xmlns:xlink="http://www.w3.org/1999/xlink">
<g id="graph0" class="graph" transform="scale(1.0641 1.0641) rotate(0) translate(49.11 856.86)">
<title>ContractCoverage</title>
<polygon fill="white" stroke="none" points="-4,4 -4,-811.75 672.62,-811.75 672.62,4 -4,4"/>
<text xml:space="preserve" text-anchor="middle" x="334.31" y="-794.25" font-family="Times New Roman,serif" font-size="10.00">simple_fraction &#45; Contract Coverage</text>
<g id="clust1" class="cluster">
<title>cluster_SIMPLE_FRACTION</title>
<polygon fill="white" stroke="black" points="419.56,0 419.56,-192.5 606.44,-192.5 606.44,0 419.56,0"/>
<text xml:space="preserve" text-anchor="middle" x="513" y="-175.2" font-family="Times New Roman,serif" font-size="14.00">SIMPLE_FRACTION</text>
</g>
<g id="clust2" class="cluster">
<title>cluster_LIB_TESTS</title>
<polygon fill="white" stroke="black" points="391.37,-476 391.37,-788.5 668.62,-788.5 668.62,-476 391.37,-476"/>
<text xml:space="preserve" text-anchor="middle" x="530" y="-771.2" font-family="Times New Roman,serif" font-size="14.00">LIB_TESTS</text>
</g>
<g id="clust3" class="cluster">
<title>cluster_SIMPLE_FRACTION_TESTS</title>
<polygon fill="white" stroke="black" points="0,-84 0,-426.5 354,-426.5 354,-84 0,-84"/>
<text xml:space="preserve" text-anchor="middle" x="177" y="-409.2" font-family="Times New Roman,serif" font-size="14.00">SIMPLE_FRACTION_TESTS</text>
</g>
<g id="clust4" class="cluster">
<title>cluster_TEST_APP</title>
<polygon fill="white" stroke="black" points="420,-252.5 420,-428 594,-428 594,-252.5 420,-252.5"/>
<text xml:space="preserve" text-anchor="middle" x="507" y="-410.7" font-family="Times New Roman,serif" font-size="14.00">TEST_APP</text>
</g>
<g id="clust5" class="cluster">
<title>cluster_legend</title>
<polygon fill="lightyellow" stroke="black" points="111.63,-476.12 111.63,-664.38 324.38,-664.38 324.38,-476.12 111.63,-476.12"/>
<text xml:space="preserve" text-anchor="middle" x="218" y="-650.88" font-family="Times New Roman,serif" font-size="10.00">Legend</text>
</g>
<!-- SIMPLE_FRACTION_default_create -->
<g id="node1" class="node">
<title>SIMPLE_FRACTION_default_create</title>
<polygon fill="khaki" stroke="black" points="493.31,-168 419.56,-168 419.56,-132 493.31,-132 493.31,-168"/>
<text xml:space="preserve" text-anchor="middle" x="456.44" y="-146.12" font-family="Times New Roman,serif" font-size="10.00">default_create</text>
</g>
<!-- SIMPLE_FRACTION_make -->
<g id="node2" class="node">
<title>SIMPLE_FRACTION_make</title>
<polygon fill="lightgray" stroke="black" points="606.44,-36 552.44,-36 552.44,0 606.44,0 606.44,-36"/>
<text xml:space="preserve" text-anchor="middle" x="579.44" y="-14.12" font-family="Times New Roman,serif" font-size="10.00">make</text>
</g>
<!-- SIMPLE_FRACTION_denominator_not_zero -->
<g id="node3" class="node">
<title>SIMPLE_FRACTION_denominator_not_zero</title>
<polygon fill="lightgray" stroke="black" points="528.94,-84 419.94,-84 419.94,-48 528.94,-48 528.94,-84"/>
<text xml:space="preserve" text-anchor="middle" x="474.44" y="-62.12" font-family="Times New Roman,serif" font-size="10.00">denominator_not_zero</text>
</g>
<!-- SIMPLE_FRACTION_set_and_reduce -->
<g id="node4" class="node">
<title>SIMPLE_FRACTION_set_and_reduce</title>
<polygon fill="lightgray" stroke="black" points="595.31,-144 515.56,-144 515.56,-108 595.31,-108 595.31,-144"/>
<text xml:space="preserve" text-anchor="middle" x="555.44" y="-122.12" font-family="Times New Roman,serif" font-size="10.00">set_and_reduce</text>
</g>
<!-- LIB_TESTS_test_creation -->
<g id="node5" class="node">
<title>LIB_TESTS_test_creation</title>
<polygon fill="lightcoral" stroke="black" points="543.62,-764 475.12,-764 475.12,-728 543.62,-728 543.62,-764"/>
<text xml:space="preserve" text-anchor="middle" x="509.37" y="-742.12" font-family="Times New Roman,serif" font-size="10.00">test_creation</text>
</g>
<!-- LIB_TESTS_test_reduction -->
<g id="node6" class="node">
<title>LIB_TESTS_test_reduction</title>
<polygon fill="lightcoral" stroke="black" points="668.62,-512 594.12,-512 594.12,-476 668.62,-476 668.62,-512"/>
<text xml:space="preserve" text-anchor="middle" x="631.38" y="-490.12" font-family="Times New Roman,serif" font-size="10.00">test_reduction</text>
</g>
<!-- LIB_TESTS_test_arithmetic -->
<g id="node7" class="node">
<title>LIB_TESTS_test_arithmetic</title>
<polygon fill="lightcoral" stroke="black" points="579.75,-519 503,-519 503,-483 579.75,-483 579.75,-519"/>
<text xml:space="preserve" text-anchor="middle" x="541.38" y="-497.12" font-family="Times New Roman,serif" font-size="10.00">test_arithmetic</text>
</g>
<!-- LIB_TESTS_test_comparison -->
<g id="node8" class="node">
<title>LIB_TESTS_test_comparison</title>
<polygon fill="lightcoral" stroke="black" points="480.75,-708 398,-708 398,-672 480.75,-672 480.75,-708"/>
<text xml:space="preserve" text-anchor="middle" x="439.38" y="-686.12" font-family="Times New Roman,serif" font-size="10.00">test_comparison</text>
</g>
<!-- LIB_TESTS_test_mixed_numbers -->
<g id="node9" class="node">
<title>LIB_TESTS_test_mixed_numbers</title>
<polygon fill="lightcoral" stroke="black" points="512.75,-617 412,-617 412,-581 512.75,-581 512.75,-617"/>
<text xml:space="preserve" text-anchor="middle" x="462.38" y="-595.12" font-family="Times New Roman,serif" font-size="10.00">test_mixed_numbers</text>
</g>
<!-- LIB_TESTS_test_string_parsing -->
<g id="node10" class="node">
<title>LIB_TESTS_test_string_parsing</title>
<polygon fill="lightcoral" stroke="black" points="485.37,-561 391.37,-561 391.37,-525 485.37,-525 485.37,-561"/>
<text xml:space="preserve" text-anchor="middle" x="438.37" y="-539.12" font-family="Times New Roman,serif" font-size="10.00">test_string_parsing</text>
</g>
<!-- LIB_TESTS_test_conversion -->
<g id="node11" class="node">
<title>LIB_TESTS_test_conversion</title>
<polygon fill="lightcoral" stroke="black" points="639.62,-729 559.12,-729 559.12,-693 639.62,-693 639.62,-729"/>
<text xml:space="preserve" text-anchor="middle" x="599.37" y="-707.12" font-family="Times New Roman,serif" font-size="10.00">test_conversion</text>
</g>
<!-- LIB_TESTS_test_special_cases -->
<g id="node12" class="node">
<title>LIB_TESTS_test_special_cases</title>
<polygon fill="lightcoral" stroke="black" points="621.5,-575 531.25,-575 531.25,-539 621.5,-539 621.5,-575"/>
<text xml:space="preserve" text-anchor="middle" x="576.37" y="-553.12" font-family="Times New Roman,serif" font-size="10.00">test_special_cases</text>
</g>
<!-- LIB_TESTS_test_thirds_exactness -->
<g id="node13" class="node">
<title>LIB_TESTS_test_thirds_exactness</title>
<polygon fill="lightcoral" stroke="black" points="605.87,-673 502.87,-673 502.87,-637 605.87,-637 605.87,-673"/>
<text xml:space="preserve" text-anchor="middle" x="554.37" y="-651.12" font-family="Times New Roman,serif" font-size="10.00">test_thirds_exactness</text>
</g>
<!-- LIB_TESTS_test_recipes -->
<g id="node14" class="node">
<title>LIB_TESTS_test_recipes</title>
<polygon fill="lightcoral" stroke="black" points="455.37,-764 391.37,-764 391.37,-728 455.37,-728 455.37,-764"/>
<text xml:space="preserve" text-anchor="middle" x="423.37" y="-742.12" font-family="Times New Roman,serif" font-size="10.00">test_recipes</text>
</g>
<!-- SIMPLE_FRACTION_TESTS_make -->
<g id="node15" class="node">
<title>SIMPLE_FRACTION_TESTS_make</title>
<polygon fill="lightcoral" stroke="black" points="132,-120 78,-120 78,-84 132,-84 132,-120"/>
<text xml:space="preserve" text-anchor="middle" x="105" y="-98.12" font-family="Times New Roman,serif" font-size="10.00">make</text>
</g>
<!-- SIMPLE_FRACTION_TESTS_passed -->
<g id="node16" class="node">
<title>SIMPLE_FRACTION_TESTS_passed</title>
<polygon fill="lightgray" stroke="black" points="54,-120 0,-120 0,-84 54,-84 54,-120"/>
<text xml:space="preserve" text-anchor="middle" x="27" y="-98.12" font-family="Times New Roman,serif" font-size="10.00">passed</text>
</g>
<!-- SIMPLE_FRACTION_TESTS_failed -->
<g id="node17" class="node">
<title>SIMPLE_FRACTION_TESTS_failed</title>
<polygon fill="lightgray" stroke="black" points="354,-252 300,-252 300,-216 354,-216 354,-252"/>
<text xml:space="preserve" text-anchor="middle" x="327" y="-230.12" font-family="Times New Roman,serif" font-size="10.00">failed</text>
</g>
<!-- SIMPLE_FRACTION_TESTS_test_creation -->
<g id="node18" class="node">
<title>SIMPLE_FRACTION_TESTS_test_creation</title>
<polygon fill="lightcoral" stroke="black" points="218.25,-402 149.75,-402 149.75,-366 218.25,-366 218.25,-402"/>
<text xml:space="preserve" text-anchor="middle" x="184" y="-380.13" font-family="Times New Roman,serif" font-size="10.00">test_creation</text>
</g>
<!-- SIMPLE_FRACTION_TESTS_test_reduction -->
<g id="node19" class="node">
<title>SIMPLE_FRACTION_TESTS_test_reduction</title>
<polygon fill="lightcoral" stroke="black" points="338.25,-132 263.75,-132 263.75,-96 338.25,-96 338.25,-132"/>
<text xml:space="preserve" text-anchor="middle" x="301" y="-110.12" font-family="Times New Roman,serif" font-size="10.00">test_reduction</text>
</g>
<!-- SIMPLE_FRACTION_TESTS_test_arithmetic -->
<g id="node20" class="node">
<title>SIMPLE_FRACTION_TESTS_test_arithmetic</title>
<polygon fill="lightcoral" stroke="black" points="316.37,-360 239.62,-360 239.62,-324 316.37,-324 316.37,-360"/>
<text xml:space="preserve" text-anchor="middle" x="278" y="-338.12" font-family="Times New Roman,serif" font-size="10.00">test_arithmetic</text>
</g>
<!-- SIMPLE_FRACTION_TESTS_test_comparison -->
<g id="node21" class="node">
<title>SIMPLE_FRACTION_TESTS_test_comparison</title>
<polygon fill="lightcoral" stroke="black" points="142.38,-180 59.63,-180 59.63,-144 142.38,-144 142.38,-180"/>
<text xml:space="preserve" text-anchor="middle" x="101" y="-158.12" font-family="Times New Roman,serif" font-size="10.00">test_comparison</text>
</g>
<!-- SIMPLE_FRACTION_TESTS_test_mixed_numbers -->
<g id="node22" class="node">
<title>SIMPLE_FRACTION_TESTS_test_mixed_numbers</title>
<polygon fill="lightcoral" stroke="black" points="280.38,-300 179.62,-300 179.62,-264 280.38,-264 280.38,-300"/>
<text xml:space="preserve" text-anchor="middle" x="230" y="-278.12" font-family="Times New Roman,serif" font-size="10.00">test_mixed_numbers</text>
</g>
<!-- SIMPLE_FRACTION_TESTS_test_string_parsing -->
<g id="node23" class="node">
<title>SIMPLE_FRACTION_TESTS_test_string_parsing</title>
<polygon fill="lightcoral" stroke="black" points="310,-192 216,-192 216,-156 310,-156 310,-192"/>
<text xml:space="preserve" text-anchor="middle" x="263" y="-170.12" font-family="Times New Roman,serif" font-size="10.00">test_string_parsing</text>
</g>
<!-- SIMPLE_FRACTION_TESTS_test_conversion -->
<g id="node24" class="node">
<title>SIMPLE_FRACTION_TESTS_test_conversion</title>
<polygon fill="lightcoral" stroke="black" points="242.25,-132 161.75,-132 161.75,-96 242.25,-96 242.25,-132"/>
<text xml:space="preserve" text-anchor="middle" x="202" y="-110.12" font-family="Times New Roman,serif" font-size="10.00">test_conversion</text>
</g>
<!-- SIMPLE_FRACTION_TESTS_test_special_cases -->
<g id="node25" class="node">
<title>SIMPLE_FRACTION_TESTS_test_special_cases</title>
<polygon fill="lightcoral" stroke="black" points="156.12,-342 65.87,-342 65.87,-306 156.12,-306 156.12,-342"/>
<text xml:space="preserve" text-anchor="middle" x="111" y="-320.12" font-family="Times New Roman,serif" font-size="10.00">test_special_cases</text>
</g>
<!-- SIMPLE_FRACTION_TESTS_test_thirds_exactness -->
<g id="node26" class="node">
<title>SIMPLE_FRACTION_TESTS_test_thirds_exactness</title>
<polygon fill="lightcoral" stroke="black" points="192.5,-240 89.5,-240 89.5,-204 192.5,-204 192.5,-240"/>
<text xml:space="preserve" text-anchor="middle" x="141" y="-218.12" font-family="Times New Roman,serif" font-size="10.00">test_thirds_exactness</text>
</g>
<!-- SIMPLE_FRACTION_TESTS_test_recipes -->
<g id="node27" class="node">
<title>SIMPLE_FRACTION_TESTS_test_recipes</title>
<polygon fill="lightcoral" stroke="black" points="70,-282 6,-282 6,-246 70,-246 70,-282"/>
<text xml:space="preserve" text-anchor="middle" x="38" y="-260.12" font-family="Times New Roman,serif" font-size="10.00">test_recipes</text>
</g>
<!-- SIMPLE_FRACTION_TESTS_check_result -->
<g id="node28" class="node">
<title>SIMPLE_FRACTION_TESTS_check_result</title>
<polygon fill="lightcoral" stroke="black" points="126.87,-402 59.12,-402 59.12,-366 126.87,-366 126.87,-402"/>
<text xml:space="preserve" text-anchor="middle" x="93" y="-380.13" font-family="Times New Roman,serif" font-size="10.00">check_result</text>
</g>
<!-- TEST_APP_make -->
<g id="node29" class="node">
<title>TEST_APP_make</title>
<polygon fill="lightcoral" stroke="black" points="474,-288.5 420,-288.5 420,-252.5 474,-252.5 474,-288.5"/>
<text xml:space="preserve" text-anchor="middle" x="447" y="-266.62" font-family="Times New Roman,serif" font-size="10.00">make</text>
</g>
<!-- TEST_APP_tests -->
<g id="node30" class="node">
<title>TEST_APP_tests</title>
<polygon fill="lightgray" stroke="black" points="519,-343.5 465,-343.5 465,-307.5 519,-307.5 519,-343.5"/>
<text xml:space="preserve" text-anchor="middle" x="492" y="-321.63" font-family="Times New Roman,serif" font-size="10.00">tests</text>
</g>
<!-- TEST_APP_passed -->
<g id="node31" class="node">
<title>TEST_APP_passed</title>
<polygon fill="lightgray" stroke="black" points="584,-398.5 530,-398.5 530,-362.5 584,-362.5 584,-398.5"/>
<text xml:space="preserve" text-anchor="middle" x="557" y="-376.62" font-family="Times New Roman,serif" font-size="10.00">passed</text>
</g>
<!-- TEST_APP_failed -->
<g id="node32" class="node">
<title>TEST_APP_failed</title>
<polygon fill="lightgray" stroke="black" points="509,-403.5 455,-403.5 455,-367.5 509,-367.5 509,-403.5"/>
<text xml:space="preserve" text-anchor="middle" x="482" y="-381.62" font-family="Times New Roman,serif" font-size="10.00">failed</text>
</g>
<!-- TEST_APP_run_test -->
<g id="node33" class="node">
<title>TEST_APP_run_test</title>
<polygon fill="lightcoral" stroke="black" points="594,-318.5 540,-318.5 540,-282.5 594,-282.5 594,-318.5"/>
<text xml:space="preserve" text-anchor="middle" x="567" y="-296.63" font-family="Times New Roman,serif" font-size="10.00">run_test</text>
</g>
<!-- legend_full -->
<g id="node34" class="node">
<title>legend_full</title>
<polygon fill="palegreen" stroke="black" points="313.88,-581.12 199.63,-581.12 199.63,-540.12 313.88,-540.12 313.88,-581.12"/>
<text xml:space="preserve" text-anchor="middle" x="256.75" y="-563.83" font-family="Times New Roman,serif" font-size="14.00">Full Contract</text>
<text xml:space="preserve" text-anchor="middle" x="256.75" y="-547.33" font-family="Times New Roman,serif" font-size="14.00">(require + ensure)</text>
</g>
<!-- legend_partial -->
<g id="node35" class="node">
<title>legend_partial</title>
<polygon fill="khaki" stroke="black" points="324.38,-517.12 207.13,-517.12 207.13,-476.12 324.38,-476.12 324.38,-517.12"/>
<text xml:space="preserve" text-anchor="middle" x="265.75" y="-499.82" font-family="Times New Roman,serif" font-size="14.00">Partial Contract</text>
<text xml:space="preserve" text-anchor="middle" x="265.75" y="-483.32" font-family="Times New Roman,serif" font-size="14.00">(require or ensure)</text>
</g>
<!-- legend_none -->
<g id="node36" class="node">
<title>legend_none</title>
<polygon fill="lightcoral" stroke="black" points="306.13,-639.62 223.38,-639.62 223.38,-603.62 306.13,-603.62 306.13,-639.62"/>
<text xml:space="preserve" text-anchor="middle" x="264.75" y="-616.58" font-family="Times New Roman,serif" font-size="14.00">No Contract</text>
</g>
<!-- legend_attr -->
<g id="node37" class="node">
<title>legend_attr</title>
<polygon fill="lightgray" stroke="black" points="200.13,-645.12 135.38,-645.12 135.38,-604.12 200.13,-604.12 200.13,-645.12"/>
<text xml:space="preserve" text-anchor="middle" x="167.75" y="-627.83" font-family="Times New Roman,serif" font-size="14.00">Attribute</text>
<text xml:space="preserve" text-anchor="middle" x="167.75" y="-611.33" font-family="Times New Roman,serif" font-size="14.00">(n/a)</text>
</g>
<!-- legend_stats -->
<g id="node38" class="node">
<title>legend_stats</title>
<polygon fill="white" stroke="black" points="171.88,-583.12 111.63,-583.12 111.63,-476.12 177.88,-476.12 177.88,-577.12 171.88,-583.12"/>
<polyline fill="none" stroke="black" points="171.88,-583.12 171.88,-577.12"/>
<polyline fill="none" stroke="black" points="177.88,-577.12 171.88,-577.12"/>
<text xml:space="preserve" text-anchor="middle" x="144.75" y="-565.83" font-family="Times New Roman,serif" font-size="14.00">Statistics</text>
<text xml:space="preserve" text-anchor="middle" x="144.75" y="-549.33" font-family="Times New Roman,serif" font-size="14.00">Full: 0</text>
<text xml:space="preserve" text-anchor="middle" x="144.75" y="-532.83" font-family="Times New Roman,serif" font-size="14.00">Partial: 1</text>
<text xml:space="preserve" text-anchor="middle" x="144.75" y="-516.33" font-family="Times New Roman,serif" font-size="14.00">None: 24</text>
<text xml:space="preserve" text-anchor="middle" x="144.75" y="-499.82" font-family="Times New Roman,serif" font-size="14.00">Attr: 8</text>
<text xml:space="preserve" text-anchor="middle" x="144.75" y="-483.32" font-family="Times New Roman,serif" font-size="14.00">Total: 33</text>
</g>
</g>
</svg>
